<?xml version="1.0" standalone="no"?>
<!DOCTYPE svg PUBLIC "-//W3C//DTD SVG 20010904//EN"
 "http://www.w3.org/TR/2001/REC-SVG-20010904/DTD/svg10.dtd">
<svg version="1.0" xmlns="http://www.w3.org/2000/svg"
 width="260.000000pt" height="260.000000pt" viewBox="0 0 260.000000 260.000000"
 preserveAspectRatio="xMidYMid meet">
<metadata>
Created by potrace 1.11, written by Peter Selinger 2001-2013
</metadata>
<g transform="translate(0.000000,260.000000) scale(0.100000,-0.100000)"
fill="#000000" stroke="none">
<path d="M1283 2084 c-3 -10 -42 -79 -86 -153 -43 -75 -89 -154 -102 -176
-105 -186 -179 -312 -185 -320 -5 -5 -19 -30 -32 -55 -27 -50 -26 -48 -163
-285 -54 -93 -118 -203 -142 -243 -23 -40 -43 -75 -43 -77 0 -3 -18 -35 -41
-71 -22 -37 -58 -99 -80 -139 l-39 -73 930 0 c511 -1 930 1 930 3 0 3 -100
176 -365 635 -62 107 -125 218 -141 245 -15 28 -45 78 -66 113 -21 34 -38 64
-38 66 0 2 -36 64 -79 139 -43 74 -90 154 -104 178 -133 234 -141 246 -154
213z"/>
</g>
</svg>
